<svg width="20" height="21" viewBox="0 0 20 21" fill="none" xmlns="http://www.w3.org/2000/svg">
  <path d="M0.75 1.25L2.83 1.61L3.793 13.083C3.87 14.02 4.653 14.739 5.593 14.736H16.502C17.399 14.738 18.16 14.078 18.287 13.19L19.236 6.632C19.342 5.899 18.833 5.219 18.101 5.113C18.037 5.104 3.164 5.099 3.164 5.099" stroke="#1A162E" stroke-width="1.5" stroke-linecap="round" stroke-linejoin="round"/>
  <path d="M12.125 8.79492H14.898" stroke="#1A162E" stroke-width="1.5" stroke-linecap="round" stroke-linejoin="round"/>
  <path fill-rule="evenodd" clip-rule="evenodd" d="M5.15338 18.2031C5.45438 18.2031 5.69738 18.4471 5.69738 18.7471C5.69738 19.0481 5.45438 19.2921 5.15338 19.2921C4.85238 19.2921 4.60938 19.0481 4.60938 18.7471C4.60938 18.4471 4.85238 18.2031 5.15338 18.2031Z" fill="#1A162E" stroke="#1A162E" stroke-width="1.5" stroke-linecap="round" stroke-linejoin="round"/>
  <path fill-rule="evenodd" clip-rule="evenodd" d="M16.4346 18.2031C16.7356 18.2031 16.9796 18.4471 16.9796 18.7471C16.9796 19.0481 16.7356 19.2921 16.4346 19.2921C16.1336 19.2921 15.8906 19.0481 15.8906 18.7471C15.8906 18.4471 16.1336 18.2031 16.4346 18.2031Z" fill="#1A162E" stroke="#1A162E" stroke-width="1.5" stroke-linecap="round" stroke-linejoin="round"/>
</svg>